<svg xmlns="http://www.w3.org/2000/svg" xmlns:xlink="http://www.w3.org/1999/xlink" width="1263" height="686" viewBox="0 0 1263 686">
  <defs>
    <filter id="Rectangle_1" x="8" y="18" width="372" height="311" filterUnits="userSpaceOnUse">
      <feOffset dy="3" input="SourceAlpha"/>
      <feGaussianBlur stdDeviation="5" result="blur"/>
      <feFlood flood-opacity="0.09"/>
      <feComposite operator="in" in2="blur"/>
      <feComposite in="SourceGraphic"/>
    </filter>
    <linearGradient id="linear-gradient" x1="-0.168" y1="0.919" x2="0.762" y2="-0.011" gradientUnits="objectBoundingBox">
      <stop offset="0.108" stop-color="#c757bc"/>
      <stop offset="0.173" stop-color="#cd5ca9"/>
      <stop offset="0.492" stop-color="#e8744f"/>
      <stop offset="0.716" stop-color="#f88316"/>
      <stop offset="0.823" stop-color="#ff8900"/>
    </linearGradient>
    <linearGradient id="linear-gradient-2" x1="0.319" y1="1.359" x2="0.773" y2="0.456" gradientUnits="objectBoundingBox">
      <stop offset="0.296" stop-color="#00afff"/>
      <stop offset="0.694" stop-color="#5282ff"/>
      <stop offset="1" stop-color="#945dff"/>
    </linearGradient>
    <linearGradient id="linear-gradient-3" x1="-0.024" y1="0.523" x2="0.61" y2="-0.08" xlink:href="#linear-gradient-2"/>
    <filter id="Rectangle_1-2" x="884" y="18" width="372" height="311" filterUnits="userSpaceOnUse">
      <feOffset dy="3" input="SourceAlpha"/>
      <feGaussianBlur stdDeviation="5" result="blur-2"/>
      <feFlood flood-opacity="0.09"/>
      <feComposite operator="in" in2="blur-2"/>
      <feComposite in="SourceGraphic"/>
    </filter>
    <filter id="Rectangle_1-3" x="446" y="394" width="372" height="281" filterUnits="userSpaceOnUse">
      <feOffset dy="3" input="SourceAlpha"/>
      <feGaussianBlur stdDeviation="5" result="blur-3"/>
      <feFlood flood-opacity="0.09"/>
      <feComposite operator="in" in2="blur-3"/>
      <feComposite in="SourceGraphic"/>
    </filter>
    <filter id="Path_4" x="543.37" y="264.39" width="177.13" height="67.71" filterUnits="userSpaceOnUse">
      <feOffset dy="3" input="SourceAlpha"/>
      <feGaussianBlur stdDeviation="2.5" result="blur-4"/>
      <feFlood flood-opacity="0.141"/>
      <feComposite operator="in" in2="blur-4"/>
      <feComposite in="SourceGraphic"/>
    </filter>
    <filter id="Ellipse_4" x="612.811" y="267.212" width="20.129" height="20.129" filterUnits="userSpaceOnUse">
      <feOffset dy="2" input="SourceAlpha"/>
      <feGaussianBlur stdDeviation="2" result="blur-5"/>
      <feFlood flood-opacity="0.122"/>
      <feComposite operator="in" in2="blur-5"/>
      <feComposite in="SourceGraphic"/>
    </filter>
    <filter id="Ellipse_5" x="600.028" y="267.212" width="20.129" height="20.129" filterUnits="userSpaceOnUse">
      <feOffset dy="2" input="SourceAlpha"/>
      <feGaussianBlur stdDeviation="2" result="blur-6"/>
      <feFlood flood-opacity="0.122"/>
      <feComposite operator="in" in2="blur-6"/>
      <feComposite in="SourceGraphic"/>
    </filter>
    <filter id="Ellipse_6" x="605.083" y="253.912" width="23.129" height="23.129" filterUnits="userSpaceOnUse">
      <feOffset dy="2" input="SourceAlpha"/>
      <feGaussianBlur stdDeviation="2.5" result="blur-7"/>
      <feFlood flood-opacity="0.141"/>
      <feComposite operator="in" in2="blur-7"/>
      <feComposite in="SourceGraphic"/>
    </filter>
    <clipPath id="clip-Web_1920_1">
      <rect width="1263" height="686"/>
    </clipPath>
  </defs>
  <g id="Web_1920_1" data-name="Web 1920 – 1" clip-path="url(#clip-Web_1920_1)">
    <rect width="1263" height="686" fill="#fff"/>
    <g id="Compiler" transform="translate(-587 -185)">
      <g transform="matrix(1, 0, 0, 1, 587, 185)" filter="url(#Rectangle_1)">
        <g id="Rectangle_1-4" data-name="Rectangle 1" transform="translate(23 30)" fill="#fff" stroke="#d5d5d5" stroke-width="1">
          <rect width="342" height="281" rx="4" stroke="none"/>
          <rect x="0.5" y="0.5" width="341" height="280" rx="3.5" fill="none"/>
        </g>
      </g>
      <g id="kotlin-1">
        <path id="Path_1" data-name="Path 1" d="M11.811,0,0,12.42v11.1L11.794,11.709,23.524,0Z" transform="translate(769 247.128)" fill="url(#linear-gradient)"/>
        <path id="_Path_" data-name="&lt;Path&gt;" d="M0,74.036,11.794,62.222l11.73,11.814Z" transform="translate(769 196.615)" fill="url(#linear-gradient-2)"/>
        <path id="Path_2" data-name="Path 2" d="M0,0H11.811L0,12.42Z" transform="translate(769 247.128)" fill="url(#linear-gradient-3)"/>
      </g>
      <text id="Compiler-2" data-name="Compiler" transform="translate(731 298)" fill="#707070" font-size="26" font-family="Assistant-SemiBold, Assistant" font-weight="600" letter-spacing="-0.016em"><tspan x="0" y="0">Compiler</tspan></text>
      <text id="_-_Lexer" data-name="-  Lexer" transform="translate(663 356)" fill="#707070" font-size="20" font-family="Assistant-Regular, Assistant" letter-spacing="-0.016em"><tspan x="0" y="0" xml:space="preserve">-  Lexer</tspan></text>
      <text id="_-_Type_Checker" data-name="-  Type Checker" transform="translate(663 394)" fill="#707070" font-size="20" font-family="Assistant-Regular, Assistant" letter-spacing="-0.016em"><tspan x="0" y="0" xml:space="preserve">-  Type Checker</tspan></text>
      <text id="_-_AST_Builder" data-name="-  AST Builder" transform="translate(716 432)" fill="#707070" font-size="20" font-family="Assistant-Regular, Assistant" letter-spacing="-0.016em"><tspan x="-52.83" y="0" xml:space="preserve">-  AST Builder</tspan></text>
    </g>
    <g id="IDE" transform="translate(-542 -173)">
      <g transform="matrix(1, 0, 0, 1, 542, 173)" filter="url(#Rectangle_1-2)">
        <g id="Rectangle_1-5" data-name="Rectangle 1" transform="translate(899 30)" fill="#fff" stroke="#d5d5d5" stroke-width="1">
          <rect width="342" height="281" rx="4" stroke="none"/>
          <rect x="0.5" y="0.5" width="341" height="280" rx="3.5" fill="none"/>
        </g>
      </g>
      <text id="IDE-2" data-name="IDE" transform="translate(1612 292)" fill="#707070" font-size="26" font-family="Assistant-SemiBold, Assistant" font-weight="600" letter-spacing="-0.016em"><tspan x="-18.148" y="0">IDE</tspan></text>
      <text id="_-_Monaco_Editor" data-name="-  Monaco Editor" transform="translate(1494 344)" fill="#707070" font-size="20" font-family="Assistant-Regular, Assistant" letter-spacing="-0.016em"><tspan x="0" y="0" xml:space="preserve">-  Monaco Editor</tspan></text>
      <g id="Group_6" data-name="Group 6" transform="translate(-31 -1.963)">
        <g id="Electron" transform="translate(1600 234)">
          <g id="electron-4">
            <path id="Path_3" data-name="Path 3" d="M11.86,16.4C7.749,15.65,4.5,16.434,3.2,18.677c-.967,1.674-.691,3.894.67,6.267a.422.422,0,1,0,.732-.42C3.38,22.387,3.141,20.472,3.934,19.1c1.076-1.864,3.975-2.563,7.775-1.871a.422.422,0,1,0,.151-.829ZM6.011,27.828A26.382,26.382,0,0,0,12.3,32.79c5.963,3.443,12.311,4.363,15.44,2.23a.422.422,0,1,0-.475-.7c-2.8,1.909-8.83,1.035-14.543-2.263a25.545,25.545,0,0,1-6.082-4.8.422.422,0,1,0-.624.567Z" transform="translate(-1.622 -9.637)" fill="#47848f"/>
            <path id="Path_4-2" data-name="Path 4" d="M26.757,27.35c2.692-3.18,3.632-6.378,2.339-8.617-.951-1.648-2.962-2.517-5.635-2.552a.422.422,0,1,0-.011.843c2.4.031,4.136.781,4.916,2.13,1.074,1.86.236,4.712-2.252,7.651a.422.422,0,1,0,.644.545ZM19.839,16.573a26.329,26.329,0,0,0-7.512,2.977C6.171,23.1,2.156,28.345,2.714,32.145a.422.422,0,1,0,.834-.123c-.495-3.374,3.311-8.341,9.2-11.742A25.5,25.5,0,0,1,20.016,17.4a.422.422,0,0,0-.177-.824Z" transform="translate(-1.641 -9.672)" fill="#47848f"/>
            <path id="Path_5" data-name="Path 5" d="M8.356,28.024c1.408,3.929,3.71,6.349,6.3,6.349,1.888,0,3.635-1.287,5-3.553a.422.422,0,1,0-.722-.434c-1.224,2.036-2.728,3.145-4.275,3.145-2.15,0-4.2-2.158-5.505-5.791a.422.422,0,1,0-.794.284Zm12.855-.769a26.465,26.465,0,0,0,1.119-7.813c0-6.983-2.444-13-5.925-14.549a.422.422,0,1,0-.342.771c3.105,1.379,5.425,7.092,5.425,13.779A25.647,25.647,0,0,1,20.407,27a.422.422,0,1,0,.8.252Zm7.939-.413a2.017,2.017,0,1,0-2.017,2.017A2.017,2.017,0,0,0,29.151,26.842Zm-.843,0a1.174,1.174,0,1,1-1.174-1.174,1.174,1.174,0,0,1,1.174,1.174ZM2.148,28.86A2.017,2.017,0,1,0,.131,26.842,2.017,2.017,0,0,0,2.148,28.86Zm0-.843a1.175,1.175,0,1,1,1.175-1.175,1.175,1.175,0,0,1-1.175,1.175Z" transform="translate(-0.131 -2.916)" fill="#47848f"/>
            <path id="Path_6" data-name="Path 6" d="M33.15,4.081a2.017,2.017,0,1,0-2.017-2.017A2.017,2.017,0,0,0,33.15,4.081Zm0-.843a1.174,1.174,0,1,1,1.175-1.174A1.174,1.174,0,0,1,33.15,3.238ZM33.459,18a1.46,1.46,0,1,1,1.119-1.736A1.46,1.46,0,0,1,33.459,18Z" transform="translate(-18.626 -0.046)" fill="#47848f"/>
          </g>
        </g>
        <g id="react" transform="translate(1655.513 234)">
          <path id="Path_7" data-name="Path 7" d="M31.487,15.743A15.743,15.743,0,1,1,15.743,0,15.722,15.722,0,0,1,31.487,15.743Z" fill="#5adafd"/>
          <g id="Group_5" data-name="Group 5" transform="translate(0.464 4.179)">
            <path id="Path_8" data-name="Path 8" d="M119.784,88.389c-.074-.5-.172-1.006-.292-1.527q-.16-.687-.371-1.4a30.533,30.533,0,0,0-1.449-3.848q-.388-.858-.835-1.72-.393-.759-.83-1.515t-.9-1.476q-.521-.816-1.072-1.583a30.386,30.386,0,0,0-2.608-3.18q-.51-.539-1.026-1.02-.587-.549-1.177-1.018c-2.563-2.035-4.858-2.646-6.462-1.72s-2.223,3.219-1.742,6.457c.073.5.172,1.006.293,1.527q.158.687.371,1.4a30.4,30.4,0,0,0,1.45,3.848q.388.858.835,1.72.393.76.83,1.516t.9,1.476q.522.817,1.072,1.583a30.368,30.368,0,0,0,2.608,3.179q.51.539,1.027,1.021.587.549,1.177,1.017a11.759,11.759,0,0,0,2.7,1.661,15.677,15.677,0,0,0,5.491-2.606A10.744,10.744,0,0,0,119.784,88.389Zm-1.443,3.558a2.054,2.054,0,0,1-2.958,1.709,9.338,9.338,0,0,1-2.9-1.663q-.524-.416-1.05-.9t-1.027-1.02c-.585-.619-1.163-1.3-1.727-2.023q-.565-.728-1.109-1.518c-.525-.763-1.032-1.566-1.514-2.4s-.925-1.676-1.322-2.512q-.413-.865-.76-1.72c-.348-.852-.645-1.692-.889-2.507-.141-.475-.265-.942-.369-1.4s-.193-.92-.259-1.362a9.332,9.332,0,0,1,.012-3.345,2.412,2.412,0,0,1,1.022-1.646,1.837,1.837,0,0,1,.932-.23,3.455,3.455,0,0,1,1,.168,9.333,9.333,0,0,1,2.9,1.662q.524.416,1.05.905T110.4,73.16c.585.619,1.164,1.3,1.729,2.024q.565.728,1.109,1.518c.524.763,1.031,1.566,1.513,2.4s.925,1.676,1.322,2.512q.413.866.76,1.72c.348.852.645,1.691.889,2.507q.212.713.369,1.4c.106.465.193.92.258,1.362A9.327,9.327,0,0,1,118.341,91.947Z" transform="translate(-95.123 -67.961)" fill="#f2f2f2"/>
            <path id="Path_9" data-name="Path 9" d="M33.381,186.493q-.7-.276-1.47-.511-.675-.205-1.4-.378a30.414,30.414,0,0,0-4.057-.668c-.624-.062-1.261-.108-1.906-.137-.569-.026-1.146-.04-1.728-.04s-1.159.013-1.729.04c-.646.029-1.283.075-1.907.137a30.4,30.4,0,0,0-4.056.668q-.722.172-1.4.378-.769.234-1.47.511c-3.044,1.2-4.721,2.884-4.721,4.736s1.677,3.535,4.721,4.737q.7.276,1.469.511.675.205,1.4.378a30.4,30.4,0,0,0,4.057.669c.624.062,1.261.107,1.907.137.569.026,1.146.039,1.728.039s1.158-.013,1.727-.039q.969-.044,1.907-.137a30.33,30.33,0,0,0,4.057-.669q.722-.173,1.4-.378c.512-.156,1-.326,1.469-.51,3.045-1.2,4.721-2.885,4.721-4.737S36.426,187.695,33.381,186.493Zm2.36,6.444a9.324,9.324,0,0,1-2.891,1.683q-.624.246-1.309.457t-1.4.379c-.828.2-1.7.359-2.616.485q-.912.126-1.869.2c-.923.074-1.872.111-2.837.111s-1.914-.037-2.837-.111c-.637-.05-1.261-.118-1.869-.2-.912-.125-1.788-.287-2.616-.485q-.723-.172-1.4-.379t-1.309-.457a9.325,9.325,0,0,1-2.891-1.683,2.052,2.052,0,0,1,0-3.416,9.324,9.324,0,0,1,2.891-1.683q.624-.246,1.309-.457T15.5,187c.828-.2,1.7-.359,2.616-.485.608-.084,1.232-.152,1.869-.2.923-.073,1.872-.111,2.837-.111s1.914.037,2.837.111q.955.074,1.869.2c.912.125,1.788.287,2.616.485q.723.172,1.4.379t1.309.457a9.324,9.324,0,0,1,2.891,1.683,2.052,2.052,0,0,1,0,3.416Z" transform="translate(-7.544 -177.576)" fill="#f2f2f2"/>
            <path id="Path_10" data-name="Path 10" d="M118.042,68.382c-1.6-.926-3.9-.315-6.462,1.72q-.588.468-1.177,1.018-.516.481-1.027,1.021a30.447,30.447,0,0,0-2.608,3.179q-.548.765-1.071,1.583-.462.72-.9,1.476t-.83,1.516q-.446.861-.835,1.72a30.434,30.434,0,0,0-1.45,3.848q-.212.712-.371,1.4-.181.783-.292,1.527a10.738,10.738,0,0,0,.016,3.791,15.667,15.667,0,0,0,5.491,2.607,11.756,11.756,0,0,0,2.7-1.661q.589-.468,1.177-1.017.516-.481,1.026-1.02a30.464,30.464,0,0,0,2.608-3.18q.548-.765,1.072-1.583.462-.72.9-1.476t.83-1.515q.446-.861.835-1.72a30.49,30.49,0,0,0,1.449-3.848q.211-.711.371-1.4c.121-.522.219-1.032.293-1.527C120.265,71.6,119.647,69.309,118.042,68.382Zm-.317,9.005c-.244.815-.541,1.655-.889,2.507q-.347.853-.76,1.72c-.4.836-.84,1.676-1.322,2.512s-.989,1.638-1.513,2.4q-.544.79-1.11,1.519c-.564.727-1.143,1.4-1.728,2.023q-.51.54-1.026,1.019t-1.05.9a9.339,9.339,0,0,1-2.9,1.663,2.054,2.054,0,0,1-2.958-1.709,9.33,9.33,0,0,1-.012-3.345c.066-.441.152-.9.258-1.362s.228-.923.369-1.4c.244-.815.541-1.655.889-2.507q.347-.853.76-1.72c.4-.836.84-1.676,1.322-2.512s.989-1.639,1.514-2.4q.543-.789,1.108-1.518c.565-.727,1.143-1.4,1.728-2.023q.511-.541,1.027-1.019t1.05-.9a9.337,9.337,0,0,1,2.9-1.662,3.455,3.455,0,0,1,1-.168,1.835,1.835,0,0,1,.932.23,2.41,2.41,0,0,1,1.022,1.646,9.33,9.33,0,0,1,.012,3.345c-.066.441-.152.9-.259,1.362S117.866,76.912,117.725,77.388Z" transform="translate(-95.124 -67.961)" fill="#f2f2f2"/>
            <circle id="Ellipse_1" data-name="Ellipse 1" cx="2.872" cy="2.872" r="2.872" transform="translate(12.408 10.782)" fill="#f2f2f2"/>
          </g>
        </g>
        <text id="_" data-name="+" transform="translate(1642.243 255.467)" fill="#707070" font-size="19" font-family="Assistant-ExtraLight, Assistant" font-weight="200" letter-spacing="-0.016em"><tspan x="-4.484" y="0">+</tspan></text>
      </g>
      <text id="_-_Language_Server_TextMate" data-name="-  Language Server / TextMate" transform="translate(1494 382)" fill="#707070" font-size="20" font-family="Assistant-Regular, Assistant" letter-spacing="-0.016em"><tspan x="0" y="0" xml:space="preserve">-  Language Server / TextMate</tspan></text>
    </g>
    <g id="Executor" transform="translate(-161 -130)">
      <g transform="matrix(1, 0, 0, 1, 161, 130)" filter="url(#Rectangle_1-3)">
        <g id="Rectangle_1-6" data-name="Rectangle 1" transform="translate(461 406)" fill="#fff" stroke="#d5d5d5" stroke-width="1">
          <rect width="342" height="251" rx="4" stroke="none"/>
          <rect x="0.5" y="0.5" width="341" height="250" rx="3.5" fill="none"/>
        </g>
      </g>
      <g id="kotlin-1-2" data-name="kotlin-1" transform="translate(12 321)">
        <path id="Path_1-2" data-name="Path 1" d="M11.811,0,0,12.42v11.1L11.794,11.709,23.524,0Z" transform="translate(769 247.128)" fill="url(#linear-gradient)"/>
        <path id="_Path_2" data-name="&lt;Path&gt;" d="M0,74.036,11.794,62.222l11.73,11.814Z" transform="translate(769 196.615)" fill="url(#linear-gradient-2)"/>
        <path id="Path_2-2" data-name="Path 2" d="M0,0H11.811L0,12.42Z" transform="translate(769 247.128)" fill="url(#linear-gradient-3)"/>
      </g>
      <text id="Executor-2" data-name="Executor" transform="translate(792 619)" fill="#707070" font-size="26" font-family="Assistant-SemiBold, Assistant" font-weight="600" letter-spacing="-0.016em"><tspan x="-46.644" y="0">Executor</tspan></text>
      <text id="_-_AST_Executor" data-name="-  AST Executor" transform="translate(675 677)" fill="#707070" font-size="20" font-family="Assistant-Regular, Assistant" letter-spacing="-0.016em"><tspan x="0" y="0" xml:space="preserve">-  AST Executor</tspan></text>
      <text id="_-_Garbage_Collector" data-name="-  Garbage Collector" transform="translate(675 715)" fill="#707070" font-size="20" font-family="Assistant-Regular, Assistant" letter-spacing="-0.016em"><tspan x="0" y="0" xml:space="preserve">-  Garbage Collector</tspan></text>
    </g>
    <g id="Arrow_-_Compile" data-name="Arrow - Compile" transform="translate(-178 -147)">
      <path id="Arrow_1" data-name="Arrow 1" d="M14.1-25.045,6.856-32.29a2.2,2.2,0,0,1-.4-.55l0,0,0-.01a2.184,2.184,0,0,1-.235-.989,2.189,2.189,0,0,1,.17-.849l0,0,0-.011.007-.016h0a2.191,2.191,0,0,1,.46-.674L14.1-42.641a2.2,2.2,0,0,1,3.106,0,2.2,2.2,0,0,1,0,3.1l-3.5,3.5H424.017a2.2,2.2,0,0,1,2.2,2.2,2.2,2.2,0,0,1-2.2,2.2H13.71l3.5,3.5a2.2,2.2,0,0,1,0,3.1,2.189,2.189,0,0,1-1.553.643A2.189,2.189,0,0,1,14.1-25.045Z" transform="translate(593.787 309.899)" fill="#979797"/>
      <text id="Compile" transform="translate(774 262)" fill="#707070" font-size="20" font-family="Assistant-SemiBold, Assistant" font-weight="600"><tspan x="0" y="0">Compile</tspan></text>
    </g>
    <g id="Arrow_-_Execute" data-name="Arrow - Execute" transform="translate(-178 -147)">
      <path id="Union_3" data-name="Union 3" d="M14.1-25.045,6.856-32.29a2.2,2.2,0,0,1-.4-.55l0,0,0-.01a2.184,2.184,0,0,1-.235-.989,2.189,2.189,0,0,1,.17-.849l0,0,0-.011.007-.016h0a2.191,2.191,0,0,1,.46-.674L14.1-42.641a2.2,2.2,0,0,1,3.106,0,2.2,2.2,0,0,1,0,3.1l-3.5,3.5H344.017a2.2,2.2,0,0,1,2.2,2.2,2.2,2.2,0,0,1-2.2,2.2H13.71l3.5,3.5a2.2,2.2,0,0,1,0,3.1,2.189,2.189,0,0,1-1.553.643A2.189,2.189,0,0,1,14.1-25.045Z" transform="translate(631.816 718.011) rotate(-135)" fill="#979797"/>
      <text id="Execute" transform="translate(456.862 573.262) rotate(45)" fill="#707070" font-size="20" font-family="Assistant-SemiBold, Assistant" font-weight="600"><tspan x="0" y="0">Execute</tspan></text>
    </g>
    <g id="Arrow_-_Result" data-name="Arrow - Result" transform="translate(-178 -147)">
      <path id="Union_4" data-name="Union 4" d="M14.1-25.045,6.856-32.29a2.2,2.2,0,0,1-.4-.55l0,0,0-.01a2.184,2.184,0,0,1-.235-.989,2.189,2.189,0,0,1,.17-.849l0,0,0-.011.007-.016h0a2.191,2.191,0,0,1,.46-.674L14.1-42.641a2.2,2.2,0,0,1,3.106,0,2.2,2.2,0,0,1,0,3.1l-3.5,3.5H344.017a2.2,2.2,0,0,1,2.2,2.2,2.2,2.2,0,0,1-2.2,2.2H13.71l3.5,3.5a2.2,2.2,0,0,1,0,3.1,2.189,2.189,0,0,1-1.553.643A2.189,2.189,0,0,1,14.1-25.045Z" transform="translate(1241.954 468.808) rotate(135)" fill="#979797"/>
      <text id="Result" transform="translate(1114.762 624.638) rotate(-45)" fill="#707070" font-size="20" font-family="Assistant-SemiBold, Assistant" font-weight="600"><tspan x="0" y="0">Result</tspan></text>
    </g>
    <g id="Godel_Logo" data-name="Godel Logo" transform="translate(417.01 186.412)">
      <g transform="matrix(1, 0, 0, 1, -417.01, -186.41)" filter="url(#Path_4)">
        <path id="Path_4-3" data-name="Path 4" d="M30.454-32.39a33.609,33.609,0,0,0,3.77-.195,23.964,23.964,0,0,0,3.239-.584,22.064,22.064,0,0,0,2.867-.938q1.345-.549,2.69-1.257V-46.55H35.162a1.5,1.5,0,0,1-1.08-.389,1.271,1.271,0,0,1-.407-.956v-3.894H49.251v19.47a28.143,28.143,0,0,1-3.982,2.407A27.125,27.125,0,0,1,40.844-28.2,32.04,32.04,0,0,1,35.8-27.168a47.233,47.233,0,0,1-5.841.336,26.354,26.354,0,0,1-10.124-1.894,23.313,23.313,0,0,1-7.929-5.31,24.107,24.107,0,0,1-5.186-8.195A28.774,28.774,0,0,1,4.86-52.745,29.48,29.48,0,0,1,6.683-63.329a23.285,23.285,0,0,1,5.2-8.195,23.255,23.255,0,0,1,8.177-5.292,29.283,29.283,0,0,1,10.744-1.876,33.182,33.182,0,0,1,5.593.442,26.147,26.147,0,0,1,4.8,1.274,22.346,22.346,0,0,1,4.089,2.018,24.983,24.983,0,0,1,3.5,2.673L46.844-69.17a1.791,1.791,0,0,1-1.558.956,2.509,2.509,0,0,1-1.239-.389q-.885-.5-1.982-1.2a16.98,16.98,0,0,0-2.673-1.363,21.52,21.52,0,0,0-3.717-1.115,24.47,24.47,0,0,0-5.08-.46,20.571,20.571,0,0,0-7.752,1.4,16.4,16.4,0,0,0-5.912,4,17.7,17.7,0,0,0-3.752,6.3,24.756,24.756,0,0,0-1.31,8.3,25.154,25.154,0,0,0,1.363,8.584,18.127,18.127,0,0,0,3.841,6.39,16.576,16.576,0,0,0,5.876,4A19.762,19.762,0,0,0,30.454-32.39ZM70.491-63.825a18.419,18.419,0,0,1,7.1,1.31A14.965,14.965,0,0,1,82.969-58.8a16.455,16.455,0,0,1,3.4,5.823,23.154,23.154,0,0,1,1.186,7.629A23.113,23.113,0,0,1,86.367-37.7a16.48,16.48,0,0,1-3.4,5.806,14.778,14.778,0,0,1-5.381,3.7,18.641,18.641,0,0,1-7.1,1.292,18.641,18.641,0,0,1-7.1-1.292,14.946,14.946,0,0,1-5.4-3.7A16.55,16.55,0,0,1,54.561-37.7a22.8,22.8,0,0,1-1.2-7.646,22.843,22.843,0,0,1,1.2-7.629A16.524,16.524,0,0,1,57.995-58.8a15.137,15.137,0,0,1,5.4-3.717A18.419,18.419,0,0,1,70.491-63.825Zm0,32q5.31,0,7.929-3.558t2.62-9.93q0-6.407-2.62-9.983t-7.929-3.575a11,11,0,0,0-4.673.92,8.746,8.746,0,0,0-3.31,2.655,11.792,11.792,0,0,0-1.982,4.266,22.865,22.865,0,0,0-.655,5.717,22.654,22.654,0,0,0,.655,5.7,11.617,11.617,0,0,0,1.982,4.23,8.814,8.814,0,0,0,3.31,2.637A11,11,0,0,0,70.491-31.824ZM117.749-27.4a1.606,1.606,0,0,1-1.7-1.31l-.566-4.354a18.877,18.877,0,0,1-5.257,4.478,13.468,13.468,0,0,1-6.779,1.681,12.944,12.944,0,0,1-5.593-1.186,11.6,11.6,0,0,1-4.283-3.487,16.608,16.608,0,0,1-2.726-5.735A29.524,29.524,0,0,1,89.89-45.2a24.743,24.743,0,0,1,1.062-7.381,17.989,17.989,0,0,1,3.062-5.929,14.352,14.352,0,0,1,4.867-3.947,14.368,14.368,0,0,1,6.513-1.434,12.976,12.976,0,0,1,5.629,1.115,13.5,13.5,0,0,1,4.177,3.133V-79.542h6.3V-27.4ZM105.536-32a10.15,10.15,0,0,0,5.4-1.416,15.562,15.562,0,0,0,4.266-4V-54.762a9.97,9.97,0,0,0-3.805-3.274,10.982,10.982,0,0,0-4.584-.938A9.076,9.076,0,0,0,99.093-55.4Q96.4-51.824,96.4-45.2a25.924,25.924,0,0,0,.6,6,11.545,11.545,0,0,0,1.77,4.106,6.956,6.956,0,0,0,2.867,2.354A9.631,9.631,0,0,0,105.536-32Zm36.5-31.824a16.007,16.007,0,0,1,5.947,1.08,13.349,13.349,0,0,1,4.708,3.115,14.2,14.2,0,0,1,3.1,5.027,19.42,19.42,0,0,1,1.115,6.814,4.109,4.109,0,0,1-.319,1.982,1.323,1.323,0,0,1-1.2.5H131.519a19.8,19.8,0,0,0,.92,5.912,12.088,12.088,0,0,0,2.336,4.195,9.361,9.361,0,0,0,3.54,2.513,12.157,12.157,0,0,0,4.6.832,13.5,13.5,0,0,0,4.089-.549,19.454,19.454,0,0,0,2.956-1.186,22.547,22.547,0,0,0,2.071-1.186,2.745,2.745,0,0,1,1.434-.549,1.387,1.387,0,0,1,1.2.6l1.77,2.3a11.968,11.968,0,0,1-2.8,2.46,17.412,17.412,0,0,1-3.487,1.717,22.148,22.148,0,0,1-3.841,1.009,23.46,23.46,0,0,1-3.929.336,18.234,18.234,0,0,1-6.85-1.257,15.033,15.033,0,0,1-5.416-3.682,16.889,16.889,0,0,1-3.558-6,24.4,24.4,0,0,1-1.274-8.213,20.9,20.9,0,0,1,1.15-7.009,16.52,16.52,0,0,1,3.31-5.646,15.237,15.237,0,0,1,5.275-3.752A17.315,17.315,0,0,1,142.033-63.825Zm.142,4.637a9.673,9.673,0,0,0-7.186,2.637,12.413,12.413,0,0,0-3.257,7.31h19.505a12.759,12.759,0,0,0-.6-4.018,8.953,8.953,0,0,0-1.77-3.151,7.922,7.922,0,0,0-2.85-2.053A9.611,9.611,0,0,0,142.175-59.187ZM166.99-79.542V-27.4h-6.3V-79.542Z" transform="translate(546.01 348.43)" fill="#5b5b5b"/>
      </g>
      <g transform="matrix(1, 0, 0, 1, -417.01, -186.41)" filter="url(#Ellipse_4)">
        <circle id="Ellipse_4-2" data-name="Ellipse 4" cx="4.064" cy="4.064" r="4.064" transform="translate(618.81 271.21)" fill="#00bcd4"/>
      </g>
      <g transform="matrix(1, 0, 0, 1, -417.01, -186.41)" filter="url(#Ellipse_5)">
        <circle id="Ellipse_5-2" data-name="Ellipse 5" cx="4.064" cy="4.064" r="4.064" transform="translate(606.03 271.21)" fill="#e91e63"/>
      </g>
      <g transform="matrix(1, 0, 0, 1, -417.01, -186.41)" filter="url(#Ellipse_6)">
        <circle id="Ellipse_6-2" data-name="Ellipse 6" cx="4.064" cy="4.064" r="4.064" transform="translate(612.58 259.41)" fill="#fff"/>
      </g>
    </g>
  </g>
</svg>
