<svg xmlns="http://www.w3.org/2000/svg" xmlns:xlink="http://www.w3.org/1999/xlink" viewBox="0 0 262.32 110.864">
  <defs>
    <style>
      .cls-1 {
        fill: #5b5b5b;
      }

      .cls-2 {
        fill: #00bcd4;
      }

      .cls-3 {
        fill: #e91e63;
      }

      .cls-4 {
        fill: #fff;
      }

      .cls-5 {
        filter: url(#Ellipse_6);
      }

      .cls-6 {
        filter: url(#Ellipse_5);
      }

      .cls-7 {
        filter: url(#Ellipse_4);
      }

      .cls-8 {
        filter: url(#Path_4);
      }
    </style>
    <filter id="Path_4" x="0" y="15.458" width="262.32" height="95.406" filterUnits="userSpaceOnUse">
      <feOffset dy="3" input="SourceAlpha"/>
      <feGaussianBlur stdDeviation="2.5" result="blur"/>
      <feFlood flood-opacity="0.141"/>
      <feComposite operator="in" in2="blur"/>
      <feComposite in="SourceGraphic"/>
    </filter>
    <filter id="Ellipse_4" x="105.14" y="19.5" width="24.4" height="24.4" filterUnits="userSpaceOnUse">
      <feOffset dy="2" input="SourceAlpha"/>
      <feGaussianBlur stdDeviation="2" result="blur-2"/>
      <feFlood flood-opacity="0.122"/>
      <feComposite operator="in" in2="blur-2"/>
      <feComposite in="SourceGraphic"/>
    </filter>
    <filter id="Ellipse_5" x="85.64" y="19.5" width="24.4" height="24.4" filterUnits="userSpaceOnUse">
      <feOffset dy="2" input="SourceAlpha"/>
      <feGaussianBlur stdDeviation="2" result="blur-3"/>
      <feFlood flood-opacity="0.122"/>
      <feComposite operator="in" in2="blur-3"/>
      <feComposite in="SourceGraphic"/>
    </filter>
    <filter id="Ellipse_6" x="94.14" y="0" width="27.4" height="27.4" filterUnits="userSpaceOnUse">
      <feOffset dy="2" input="SourceAlpha"/>
      <feGaussianBlur stdDeviation="2.5" result="blur-4"/>
      <feFlood flood-opacity="0.141"/>
      <feComposite operator="in" in2="blur-4"/>
      <feComposite in="SourceGraphic"/>
    </filter>
  </defs>
  <g id="Symbol_1_1" data-name="Symbol 1 – 1" transform="translate(-126.36 -67.5)">
    <g class="cls-8" transform="matrix(1, 0, 0, 1, 126.36, 67.5)">
      <path id="Path_4-2" data-name="Path 4" class="cls-1" d="M43.9-7.614a51.27,51.27,0,0,0,5.751-.3A36.556,36.556,0,0,0,54.594-8.8a33.655,33.655,0,0,0,4.374-1.431q2.052-.837,4.1-1.917V-29.214H51.084a2.283,2.283,0,0,1-1.647-.594,1.939,1.939,0,0,1-.621-1.458v-5.94h23.76v29.7A42.932,42.932,0,0,1,66.5-3.834a41.378,41.378,0,0,1-6.75,2.619A48.876,48.876,0,0,1,52.056.351a72.05,72.05,0,0,1-8.91.513A40.2,40.2,0,0,1,27.7-2.025a35.563,35.563,0,0,1-12.1-8.1A36.774,36.774,0,0,1,7.7-22.626,43.893,43.893,0,0,1,4.86-38.664,44.971,44.971,0,0,1,7.641-54.81a35.52,35.52,0,0,1,7.938-12.5,35.474,35.474,0,0,1,12.474-8.073,44.67,44.67,0,0,1,16.389-2.862,50.617,50.617,0,0,1,8.532.675,39.886,39.886,0,0,1,7.317,1.944,34.086,34.086,0,0,1,6.237,3.078,38.109,38.109,0,0,1,5.346,4.077L68.9-63.72a2.732,2.732,0,0,1-2.376,1.458,3.827,3.827,0,0,1-1.89-.594q-1.35-.756-3.024-1.836a25.9,25.9,0,0,0-4.077-2.079,32.826,32.826,0,0,0-5.67-1.7,37.328,37.328,0,0,0-7.749-.7,31.379,31.379,0,0,0-11.826,2.133,25.014,25.014,0,0,0-9.018,6.1,27.006,27.006,0,0,0-5.724,9.612,37.764,37.764,0,0,0-2,12.663,38.371,38.371,0,0,0,2.079,13.1,27.652,27.652,0,0,0,5.859,9.747,25.286,25.286,0,0,0,8.964,6.1A30.146,30.146,0,0,0,43.9-7.614Zm61.074-47.952a28.1,28.1,0,0,1,10.827,2,22.829,22.829,0,0,1,8.208,5.67,25.1,25.1,0,0,1,5.184,8.883A35.32,35.32,0,0,1,131-27.378,35.257,35.257,0,0,1,129.2-15.714a25.14,25.14,0,0,1-5.184,8.856A22.544,22.544,0,0,1,115.8-1.215,28.436,28.436,0,0,1,104.976.756,28.436,28.436,0,0,1,94.149-1.215a22.8,22.8,0,0,1-8.235-5.643,25.246,25.246,0,0,1-5.238-8.856A34.784,34.784,0,0,1,78.84-27.378a34.846,34.846,0,0,1,1.836-11.637A25.206,25.206,0,0,1,85.914-47.9a23.09,23.09,0,0,1,8.235-5.67A28.1,28.1,0,0,1,104.976-55.566Zm0,48.816q8.1,0,12.1-5.427t4-15.147q0-9.774-4-15.228t-12.1-5.454a16.787,16.787,0,0,0-7.128,1.4,13.341,13.341,0,0,0-5.049,4.05,17.988,17.988,0,0,0-3.024,6.507,34.88,34.88,0,0,0-1,8.721,34.557,34.557,0,0,0,1,8.694A17.721,17.721,0,0,0,92.8-12.177a13.446,13.446,0,0,0,5.049,4.023A16.787,16.787,0,0,0,104.976-6.75ZM177.066,0a2.451,2.451,0,0,1-2.592-2L173.61-8.64a28.8,28.8,0,0,1-8.019,6.831A20.544,20.544,0,0,1,155.25.756a19.746,19.746,0,0,1-8.532-1.809,17.692,17.692,0,0,1-6.534-5.319,25.335,25.335,0,0,1-4.158-8.748,45.038,45.038,0,0,1-1.458-12.042,37.744,37.744,0,0,1,1.62-11.259,27.441,27.441,0,0,1,4.671-9.045,21.893,21.893,0,0,1,7.425-6.021,21.918,21.918,0,0,1,9.936-2.187,19.794,19.794,0,0,1,8.586,1.7,20.587,20.587,0,0,1,6.372,4.779V-79.542h9.612V0Zm-18.63-7.02a15.484,15.484,0,0,0,8.235-2.16,23.739,23.739,0,0,0,6.507-6.1v-26.46a15.208,15.208,0,0,0-5.8-4.995,16.753,16.753,0,0,0-6.993-1.431q-7.668,0-11.772,5.454t-4.1,15.552a39.545,39.545,0,0,0,.918,9.153,17.612,17.612,0,0,0,2.7,6.264A10.611,10.611,0,0,0,152.5-8.154,14.692,14.692,0,0,0,158.436-7.02ZM214.11-55.566a24.418,24.418,0,0,1,9.072,1.647,20.363,20.363,0,0,1,7.182,4.752,21.665,21.665,0,0,1,4.725,7.668,29.624,29.624,0,0,1,1.7,10.395,6.269,6.269,0,0,1-.486,3.024,2.018,2.018,0,0,1-1.836.756h-36.4a30.2,30.2,0,0,0,1.4,9.018,18.439,18.439,0,0,0,3.564,6.4,14.28,14.28,0,0,0,5.4,3.834A18.545,18.545,0,0,0,215.46-6.8a20.594,20.594,0,0,0,6.237-.837,29.673,29.673,0,0,0,4.509-1.809,34.393,34.393,0,0,0,3.159-1.809,4.188,4.188,0,0,1,2.187-.837,2.115,2.115,0,0,1,1.836.918l2.7,3.51a18.258,18.258,0,0,1-4.266,3.753A26.562,26.562,0,0,1,226.5-1.3,33.784,33.784,0,0,1,220.644.243a35.786,35.786,0,0,1-5.994.513A27.815,27.815,0,0,1,204.2-1.161a22.933,22.933,0,0,1-8.262-5.616,25.764,25.764,0,0,1-5.427-9.153,37.219,37.219,0,0,1-1.944-12.528,31.874,31.874,0,0,1,1.755-10.692,25.2,25.2,0,0,1,5.049-8.613,23.243,23.243,0,0,1,8.046-5.724A26.413,26.413,0,0,1,214.11-55.566Zm.216,7.074q-6.966,0-10.962,4.023T198.4-33.318H228.15a19.463,19.463,0,0,0-.918-6.129,13.657,13.657,0,0,0-2.7-4.806,12.085,12.085,0,0,0-4.347-3.132A14.661,14.661,0,0,0,214.326-48.492Zm37.854-31.05V0h-9.612V-79.542Z" transform="translate(2.64 99.5)"/>
    </g>
    <g class="cls-7" transform="matrix(1, 0, 0, 1, 126.36, 67.5)">
      <circle id="Ellipse_4-2" data-name="Ellipse 4" class="cls-2" cx="6.2" cy="6.2" r="6.2" transform="translate(111.14 23.5)"/>
    </g>
    <g class="cls-6" transform="matrix(1, 0, 0, 1, 126.36, 67.5)">
      <circle id="Ellipse_5-2" data-name="Ellipse 5" class="cls-3" cx="6.2" cy="6.2" r="6.2" transform="translate(91.64 23.5)"/>
    </g>
    <g class="cls-5" transform="matrix(1, 0, 0, 1, 126.36, 67.5)">
      <circle id="Ellipse_6-2" data-name="Ellipse 6" class="cls-4" cx="6.2" cy="6.2" r="6.2" transform="translate(101.64 5.5)"/>
    </g>
  </g>
</svg>
